<svg version="1" xmlns="http://www.w3.org/2000/svg" width="673.333" height="673.333" viewBox="0 0 505.000000 505.000000"><path d="M214.5 7c-30.1 2.1-52 8.5-82.7 24.1-30.9 15.8-52.6 37.8-59.2 59.8-2.1 7.3-2 12.5.5 20.7 4.8 15.4 11.8 26.5 24 37.8 22.3 20.6 57.9 36.5 104.4 46.3 12.6 2.7 13.9 2.8 45 2.8 32.7 0 45.5-.9 67-4.5 48.6-8.3 96-35.2 114.7-65 7.1-11.3 8.3-15.4 8.3-27.5 0-9.7-.3-11.8-2.7-17.3-12.9-30.3-49-55.6-100.7-70.6-21.8-6.4-25.6-6.8-68.1-7.1-21.2-.2-43.9 0-50.5.5zm60.6 17.9l3.7.6-4.6 7.8c-2.5 4.2-4.3 8-4 8.2.7.7 14.4 2.4 19.4 2.5h4.2l4.2-8.1 4.2-8.1 8.6.7c13.3 1.1 12.9.6 8.3 10.2-2.2 4.6-3.7 8.4-3.3 8.6.4.3 3.9 1 7.7 1.6 12.1 2.1 30.3 7 36.1 9.7 2 .9 5.6 3.6 8.2 5.9 4.4 4 4.7 4.6 4.7 9.2 0 4.2-.5 5.5-3.3 8.5-4.2 4.4-9.9 7.3-17.7 8.8-3.3.6-7 1.4-8.3 1.6-3.9.8-1.9 2.6 5.3 4.9 9.2 2.9 18.3 7.6 21.7 11.2 5.7 6 7.5 15.8 3.8 20.6-1.1 1.4-2 2.9-2 3.4 0 2.7-14.5 13.6-21.5 16.1-10.6 3.8-19 4.7-43.5 4.7-13.5 0-28.9-.3-34.2-.8l-9.7-.7-7.6 15c-6.3 12.5-7.9 15-9.8 15-4.3 0-25.7-3.4-25.7-4.1 0-.4 3.1-6.5 7-13.6 3.8-7 7-13.6 7-14.5 0-.9-.8-1.9-1.7-2.2-2.5-.7-12.6-2.3-19.3-3.1-6.8-.7-6.8-.7-17.1 15.9-4 6.5-7.9 12-8.6 12.3-1.2.5-25.4-2.5-26.2-3.3-.2-.2 3.4-6.1 8-13 4.5-7 8.3-13.7 8.3-14.8.1-2-1.5-2.3-27.9-6.3-15.4-2.2-28.1-4.2-28.3-4.2-.6-.2 14.4-12.8 16.5-14 1.7-.9 4.7-.8 13.5.3 11.7 1.5 17.4 1.1 21.6-1.5 3.6-2.2 40.3-52.1 44.7-60.8 1.6-3.2 1.6-3.4-.3-5.3-1.4-1.4-4.8-2.4-11.8-3.5-16.9-2.5-16-1.9-10.9-7.6l3.3-3.8 24.3 2.6 24.3 2.7 2.3-2.8c1.3-1.6 4-5.5 6.1-8.7l3.7-5.8 6.5.7c3.6.3 8.1.9 10.1 1.3z"/><path d="M255.7 66.3c-4.2 6.8-7.7 12.8-7.7 13.3 0 1.5 29 4.4 43.5 4.4 22.8 0 34.9-5.5 31.6-14.3-1.8-4.8-9.3-8.5-22.6-11.2-6.8-1.4-30.9-4.5-35-4.5-1.5 0-4 3.1-9.8 12.3zM238.6 94.5c-1 1.5-5.6 8.9-10.2 16.7-6.4 10.4-8.3 14.3-7.3 14.9 1.7 1 10.5 2.5 26.9 4.5 16.9 2 41.1 2.3 50.5.5 7.7-1.5 14.3-4.4 15.2-6.6.3-.8 1.1-1.5 1.9-1.5 1.9 0 3.3-5.9 2.1-9.3-1.5-4.4-10.9-10.5-19.4-12.6-2.1-.5-6.5-1.6-9.8-2.5-6.6-1.6-40.7-6.6-45.3-6.6-2.1 0-3.5.8-4.6 2.5zM69.5 178.7c.4 14.2 1.1 27.8 1.6 30.2.6 2.5 2.9 8.3 5.2 13 3.6 7.5 5.7 10.2 16.2 20.6 13.8 13.9 23.6 20.8 41.6 29.4 21.5 10.3 44.5 17.3 73.4 22.3 11.7 2 16.3 2.3 46 2.3 36.1 0 42.8-.6 69.4-6.7 52.4-11.8 94.9-38.6 110.1-69.3 5.2-10.6 6-16.4 6-44.4v-23.4l-10.5 10.1c-5.7 5.6-13.7 12.4-17.7 15.2-32.2 22.8-71.9 36.6-118.8 41.6-21.8 2.3-68.9 1.5-87.5-1.4-36.8-5.8-68.6-16.5-93.8-31.7-14.2-8.5-21.5-14.1-31.9-24.7-4.8-4.8-9-8.8-9.4-8.8-.3 0-.3 11.6.1 25.7z"/><path d="M69.3 277.7c.3 15.3 1.1 30.3 1.8 33.3 3.5 16.3 20.4 37.6 40.4 50.9 19.5 12.8 50.9 25.6 77.5 31.5 6.4 1.4 19 3.5 28 4.7 14.4 1.9 19.6 2.1 41 1.6 51.6-1.2 87.1-9.4 122.8-28.3 14.9-7.8 21.4-12.5 33-23.8 11.4-11 17.4-19.4 21.8-30.1l2.9-7 .3-30.5.4-30.5-3.4 3c-1.8 1.7-7.4 6.9-12.3 11.5-10.8 10.1-20.8 16.9-36.5 24.9-36.9 18.9-73.4 27.4-123 28.8-53.9 1.4-101.3-7.8-140-27.4-17.5-8.8-29-16.9-43.2-30.3-5.8-5.5-11-10-11.4-10-.4 0-.4 12.5-.1 27.7z"/><path d="M70 378.6c0 30.1.8 35.4 7.2 47.6 5.7 11.3 21.9 27.7 36.5 37.2 26.1 17 60.7 29 100.6 34.7 12.6 1.8 17.5 2 43.7 1.5 37.7-.6 54.3-2.9 81.7-11.2 31.6-9.5 57.7-23.8 74.9-40.9 10.1-9.9 16.6-19.3 20.9-30l2.9-7 .4-29 .4-29-3.4 3.1c-1.8 1.6-7.3 6.7-12.1 11.2-31.8 29.6-85.1 49.2-144.7 53.4-21.5 1.5-60.5-.1-79-3.3-35.3-5.9-67.4-17.2-90.8-31.7-11.3-7-18.7-12.9-29.8-23.5l-9.4-8.9v25.8z"/></svg>