<svg xmlns="http://www.w3.org/2000/svg" viewBox="0 0 133.19 133.66" height="505.172" width="503.395"><g fill="#f79836"><path d="M67.555 1.704c-16.062-.04-20.587.804-31.497 5.87-10.18 4.727-17.471 12.777-17.467 19.287 0 1.288.93 4.202 2.065 6.474 4.419 8.854 18.059 16.121 35.421 18.872 6.865 1.088 22.31.273 29.924-1.58 18.727-4.557 32.037-16.786 29.06-26.699-2.586-8.613-11.737-15.545-26.496-20.072-6.383-1.958-7.966-2.12-21.01-2.151z"/><path d="M59.635 78.394c-11.607-1.108-22.463-4.596-30.098-9.67-3.102-2.061-7.49-6.35-8.829-8.629-.515-.877-1.26-2.435-1.654-3.462-.694-1.804-.722-2.11-.823-9.058l-.105-7.191 1.867 2.014c6.851 7.39 18.865 13.036 32.404 15.225 10.296 1.665 22.513 1.456 32.459-.554 11.794-2.384 21.646-7.17 28.3-13.748l2.859-2.826-.096 7.105c-.092 6.856-.12 7.171-.81 8.974-1.152 3.006-2.415 4.876-5.216 7.726-7.509 7.637-20.382 12.705-35.871 14.12-3.557.326-10.844.312-14.386-.026z"/><path d="M60.875 105.704l-3.602-.405c-7.626-.852-15.792-3.15-22.03-6.199-7.727-3.776-12.72-8.172-15.488-13.636-1.346-2.655-1.555-4.279-1.564-12.146l-.008-7.223 2.841 2.793C31.11 78.803 47.475 84.26 67.096 84.246c13.31-.009 24.147-2.26 34.075-7.083 5.031-2.444 8.332-4.729 11.862-8.211l2.999-2.959-.098 7.937c-.096 7.742-.116 7.983-.812 9.806-1.17 3.06-2.43 4.905-5.353 7.84-3.238 3.25-5.84 5.054-10.8 7.485-8.978 4.401-18.514 6.484-30.474 6.658-3.657.053-7.085.046-7.619-.015z"/></g><path fill="#ffcf3d" d="M60.345 132.284c-15.091-1.385-28.383-6.52-35.816-13.837-2.28-2.245-3.456-3.792-4.597-6.05-1.53-3.027-1.716-4.34-1.721-12.11l-.004-7.044 2.98 2.93c7.555 7.428 18.433 12.203 32.91 14.448 4.64.72 16.249.998 21.402.512 9.72-.915 18.242-3.175 25.695-6.814 5.049-2.466 8.341-4.747 11.862-8.221l2.999-2.96-.1 7.661c-.096 7.44-.12 7.715-.812 9.529-1.076 2.818-2.347 4.76-4.853 7.412-2.944 3.118-6.218 5.43-11.023 7.786-4.43 2.172-8.024 3.47-13.033 4.705-6.182 1.525-10.037 1.977-17.718 2.077-3.81.05-7.487.04-8.173-.023z"/><path fill="#ec852e" d="M53.085 66.854c-6.489-6.35-11.774-11.584-11.745-11.63.029-.046 1.158.234 2.51.622 3.819 1.096 8.81 2.031 13.453 2.52 5.976.631 17.863.406 23.36-.442 6.943-1.07 12.394-2.586 18.083-5.03 5.574-2.393 9.874-5.196 14.497-9.446l2.664-2.45-.116 6.3c-.064 3.466-.23 6.888-.37 7.605-.858 4.413-5.156 9.72-11.158 13.774-8.73 5.899-22.712 9.768-35.181 9.734l-4.2-.011zM80.425 93.454l-9.329-9.068 3.875-.323c9.1-.758 16.207-2.44 23.574-5.576 6.03-2.569 9.883-5.052 14.578-9.399l2.807-2.598-.121 7.133c-.067 3.924-.235 7.72-.374 8.437-.855 4.409-5.626 10.26-11.43 14.02-2.439 1.58-8.471 4.476-11.634 5.585-1.345.471-2.485.857-2.532.857-.047 0-4.284-4.08-9.415-9.068z"/><path fill="#ffbe27" d="M101.065 113.594c-5.522-5.379-6.425-6.37-5.961-6.538.3-.11 1.855-.752 3.455-1.426 5.974-2.519 9.848-5.015 14.575-9.39l2.803-2.595-.117 6.853c-.064 3.769-.235 7.458-.379 8.198-.324 1.665-1.915 4.891-3.231 6.553-1.142 1.443-4.275 4.72-4.491 4.699-.08-.01-3.075-2.867-6.654-6.354z"/><path fill="#fff" d="M60.995 47.785l-3.33-.518 2.189-3.937c1.153-2.075 1.99-3.851 1.891-4.001-.23-.347-6.823-1.277-7.276-1.029-.187.103-1.307 1.776-2.521 3.769-1.25 2.052-2.37 3.822-2.456 3.877-.131.083-6.957-.867-7.312-1.017-.064-.027 1.085-1.844 2.513-3.976 1.383-2.07 2.362-3.782 2.212-3.863-.149-.08-3.683-.622-7.821-1.2-4.101-.572-7.487-1.066-7.554-1.102-.068-.037.228-.286.656-.555.427-.267.816-.64.868-.83.05-.188.38-.455.73-.593.35-.137.83-.536 1.07-.883.236-.346.768-.793 1.18-.995.721-.352.837-.352 3.182 0 1.344.203 2.945.365 3.554.36 1.38-.012 2.685-.35 2.75-.713.027-.15.212-.305.412-.343.2-.038 3.194-4.004 6.424-8.495 4.092-5.689 5.28-7.52 5.195-7.959-.175-.908-1.272-1.29-4.723-1.658-2.387-.255-2.935-.364-2.78-.553 1.207-1.466 1.975-2.36 2.06-2.396.088-.038 11.632 1.2 12.646 1.357.219.034.925-.79 1.782-2.073a426.743 426.743 0 011.521-2.266c.139-.199.294-.204 1.637-.055.818.09 2.075.223 2.792.295l1.307.13-1.325 2.157c-.754 1.226-1.331 2.27-1.269 2.294.064.024 1.47.191 3.129.371l3.032.329 1.242-2.298 1.191-2.203 2.724.286c1.504.158 2.793.309 2.86.335.066.026-.372 1.037-.986 2.274-.629 1.266-1.15 2.355-1.145 2.393.006.038.623.143 1.375.233.752.09 1.377.218 1.388.283.012.065.556.157 1.214.205.657.048 1.206.142 1.218.21.012.067.366.166.786.22.42.054.973.172 1.226.262 1.2.427 1.58.533 1.91.53.194-.001.37.065.387.15.018.083.254.15.523.147.269-.002.618.132.775.3.159.167.536.303.838.3.301-.002.46.04.353.096-.107.055.126.28.52.5 1.548.864 2.457 1.808 2.675 2.792.248 1.122-.089 2.769-.58 2.773-.179.002-.3.102-.271.223.05.203-.627.767-1.832 1.522-.752.47-2.817 1.048-4.3 1.2-.988.1-1.332.228-1.287.478.034.189.408.393.83.453.424.06.785.185.803.28.018.094.263.17.544.166.64-.005 4.088 1.587 5.01 2.32.808.643 1.62 1.853 1.808 2.705.33 1.504.224 3.036-.246 3.358-.284.194-.586.638-.671.986-.15.607-.332.813-1.36 1.527-.245.17-.433.369-.418.441.014.073-.712.587-1.622 1.148-.918.566-1.686.975-1.7.905-.01-.07-.388.08-.837.335-.45.257-.989.415-1.195.351-.206-.064-.355-.001-.332.14.023.14-.153.196-.392.122-.237-.075-.784-.024-1.214.114-1.528.486-8.727.87-10.39.553-.537-.103-.955-.094-.947.02.009.112-.893.065-1.999-.106-1.103-.17-2.229-.258-2.504-.196-.275.061-1.2.011-2.05-.107-.85-.12-1.629-.17-1.731-.113-.103.058-.94 1.62-1.884 3.519-.969 1.95-1.891 3.79-2.024 4.037-.3.556-.475.552-4.648-.097zm17.222-13.079c1.025-.23 1.342-.275 1.941-.281.548-.006 2.714-1.326 2.68-1.63-.017-.147.141-.27.351-.272.551-.005.993-1.403.729-2.277-.123-.408-.716-1.12-1.314-1.58-1.058-.818-3.753-1.972-4.57-1.965-.23.002-.425-.078-.432-.179-.01-.1-.485-.232-1.06-.293-.574-.062-1.302-.214-1.62-.339-.48-.188-11.244-1.634-11.478-1.543-.116.045-5.127 8.262-5.311 8.72-.142.353.43.489 4.397 1.043 2.528.353 5.577.678 6.764.72 1.188.043 2.235.115 2.327.162.322.164 5.613-.065 6.596-.286zm3.385-12.849c.099-.068.422-.15.717-.183.646-.07 2.068-.817 2.033-1.065-.011-.097.12-.177.297-.179.869-.009.948-1.98.13-2.747-.695-.654-2.698-1.61-3.349-1.604-.255.002-.47-.065-.48-.15-.01-.083-.447-.196-.973-.25-.524-.054-1.139-.177-1.364-.272-.537-.227-8.702-1.141-8.994-1.009-.227.104-4.382 6.759-4.244 6.815.334.135 7.502.882 8.805.916.913.024 1.737.079 1.83.121.251.114 5.38-.248 5.592-.393z"/></svg>