<?xml version="1.0" encoding="UTF-8" standalone="no"?>
<svg
   xmlns:dc="http://purl.org/dc/elements/1.1/"
   xmlns:cc="http://creativecommons.org/ns#"
   xmlns:rdf="http://www.w3.org/1999/02/22-rdf-syntax-ns#"
   xmlns:svg="http://www.w3.org/2000/svg"
   xmlns="http://www.w3.org/2000/svg"
   xmlns:sodipodi="http://sodipodi.sourceforge.net/DTD/sodipodi-0.dtd"
   xmlns:inkscape="http://www.inkscape.org/namespaces/inkscape"
   inkscape:version="1.0 (4035a4fb49, 2020-05-01)"
   sodipodi:docname="favicon.svg"
   id="svg920"
   version="1.1"
   viewBox="0 0 16.933333 16.933333"
   height="64"
   width="64">
  <defs
     id="defs914" />
  <sodipodi:namedview
     inkscape:window-maximized="0"
     inkscape:window-y="4"
     inkscape:window-x="910"
     inkscape:window-height="1030"
     inkscape:window-width="1424"
     fit-margin-bottom="0"
     fit-margin-right="0"
     fit-margin-left="0"
     fit-margin-top="0"
     showgrid="false"
     inkscape:document-rotation="0"
     inkscape:current-layer="layer1"
     inkscape:document-units="mm"
     inkscape:cy="-62.335189"
     inkscape:cx="62.356729"
     inkscape:zoom="2.8"
     inkscape:pageshadow="2"
     inkscape:pageopacity="0.0"
     borderopacity="1.0"
     bordercolor="#666666"
     pagecolor="#ffffff"
     id="base"
     units="px"
     height="64in" />
  <metadata
     id="metadata917">
    <rdf:RDF>
      <cc:Work
         rdf:about="">
        <dc:format>image/svg+xml</dc:format>
        <dc:type
           rdf:resource="http://purl.org/dc/dcmitype/StillImage" />
        <dc:title />
      </cc:Work>
    </rdf:RDF>
  </metadata>
  <g
     transform="translate(-90.193041,-37.838657)"
     id="layer1"
     inkscape:groupmode="layer"
     inkscape:label="Layer 1">
    <g
       id="g22"
       transform="matrix(0.1245671,0,0,0.1245671,81.41738,33.506076)">
      <g
         id="g10"
         fill="#f79836">
        <path
           id="path4"
           d="m 139.62,37.84 c -16.062,-0.03958 -20.587,0.80416 -31.497,5.8699 -10.18,4.7268 -17.471,12.777 -17.467,19.287 7.74e-4,1.2878 0.93093,4.2017 2.0652,6.4744 4.4189,8.8539 18.059,16.121 35.421,18.872 6.8652,1.0878 22.31,0.27268 29.924,-1.5803 18.727,-4.5576 32.037,-16.786 29.06,-26.699 -2.5863,-8.6133 -11.737,-15.545 -26.496,-20.072 -6.3834,-1.9577 -7.9664,-2.1195 -21.01,-2.1516 z" />
        <path
           id="path6"
           d="m 131.7,114.53 c -11.607,-1.1085 -22.463,-4.5962 -30.098,-9.67 -3.1019,-2.0613 -7.4896,-6.3498 -8.8286,-8.6291 -0.51517,-0.87696 -1.2598,-2.4348 -1.6547,-3.4619 -0.69373,-1.8042 -0.72158,-2.1109 -0.82272,-9.0584 l -0.10468,-7.191 1.8668,2.0138 c 6.8515,7.3911 18.865,13.036 32.404,15.225 10.296,1.665 22.513,1.4566 32.459,-0.55378 11.794,-2.384 21.646,-7.1703 28.3,-13.748 l 2.8586,-2.826 -0.0953,7.1054 c -0.0918,6.8561 -0.12021,7.171 -0.8109,8.9737 -1.1516,3.0059 -2.4142,4.8762 -5.2157,7.7257 -7.5085,7.6373 -20.382,12.705 -35.871,14.121 -3.557,0.32514 -10.844,0.31168 -14.386,-0.0264 z" />
        <path
           id="path8"
           d="m 132.94,141.84 c -0.53337,-0.061 -2.1543,-0.24337 -3.6021,-0.40507 -7.6253,-0.8521 -15.792,-3.15 -22.03,-6.1986 -7.7272,-3.7762 -12.72,-8.172 -15.488,-13.636 -1.3453,-2.6559 -1.5543,-4.2794 -1.5636,-12.146 l -0.0085,-7.2237 2.8416,2.7934 c 10.086,9.915 26.451,15.371 46.072,15.358 13.309,-0.009 24.147,-2.261 34.075,-7.0831 5.0312,-2.4438 8.3322,-4.729 11.862,-8.2113 l 2.9986,-2.9587 -0.0982,7.9371 c -0.0956,7.742 -0.11553,7.983 -0.81196,9.8054 -1.169,3.0598 -2.4293,4.9058 -5.3522,7.8399 -3.2381,3.2506 -5.8405,5.0541 -10.801,7.4858 -8.9778,4.401 -18.513,6.4842 -30.473,6.6574 -3.6572,0.0531 -7.0859,0.0463 -7.6193,-0.0147 z" />
      </g>
      <path
         id="path12"
         fill="#ffcf3d"
         d="m 132.41,168.42 c -15.091,-1.3851 -28.383,-6.52 -35.816,-13.837 -2.2805,-2.2449 -3.4561,-3.7921 -4.5969,-6.0498 -1.5297,-3.0274 -1.7162,-4.3396 -1.7209,-12.11 l -0.0044,-7.044 2.9802,2.93 c 7.5548,7.4273 18.433,12.203 32.91,14.448 4.6396,0.7196 16.249,0.99738 21.402,0.51215 9.7207,-0.91531 18.242,-3.1752 25.695,-6.8146 5.049,-2.4654 8.3413,-4.7472 11.862,-8.2211 l 2.9992,-2.9593 -0.0997,7.6606 c -0.0968,7.4392 -0.12021,7.7146 -0.81269,9.5289 -1.0756,2.8181 -2.3464,4.7595 -4.8524,7.4123 -2.9447,3.1174 -6.2184,5.4295 -11.023,7.7854 -4.4297,2.172 -8.0245,3.4699 -13.033,4.7051 -6.1826,1.525 -10.037,1.9769 -17.718,2.0774 -3.8096,0.0498 -7.4877,0.039 -8.1734,-0.0235 z" />
      <path
         id="path14"
         fill="#ec852e"
         d="m 125.15,102.99 c -6.4888,-6.3506 -11.774,-11.584 -11.745,-11.63 0.029,-0.04574 1.1584,0.23398 2.5099,0.62187 3.8192,1.0962 8.8095,2.0313 13.453,2.5209 5.9761,0.63005 17.863,0.40484 23.36,-0.44257 6.9429,-1.0703 12.394,-2.5865 18.083,-5.0296 5.5741,-2.3937 9.8747,-5.1963 14.497,-9.4469 l 2.6645,-2.4504 -0.11641,6.3011 c -0.0642,3.4656 -0.23046,6.8877 -0.36985,7.6047 -0.85758,4.4127 -5.1558,9.7189 -11.158,13.774 -8.7299,5.8986 -22.712,9.7674 -35.181,9.7342 l -4.1998,-0.0117 z" />
      <path
         id="path16"
         fill="#ec852e"
         d="m 152.49,129.59 -9.3284,-9.0682 3.8741,-0.3228 c 9.1008,-0.75824 16.207,-2.4392 23.574,-5.5766 6.0309,-2.5684 9.883,-5.0517 14.578,-9.3982 l 2.8074,-2.5986 -0.1211,7.1335 c -0.0666,3.9234 -0.23486,7.7201 -0.37381,8.437 -0.85503,4.4084 -5.6258,10.26 -11.43,14.02 -2.4387,1.5797 -8.4714,4.4754 -11.634,5.5844 -1.3452,0.47171 -2.4846,0.85766 -2.532,0.85769 -0.0475,3e-5 -4.284,-4.0806 -9.4146,-9.0681 z" />
      <path
         id="path18"
         fill="#ffbe27"
         d="m 173.13,149.73 c -5.5216,-5.3788 -6.4245,-6.3692 -5.9609,-6.5386 0.30051,-0.10966 1.8552,-0.75134 3.4548,-1.4258 5.9739,-2.5187 9.8481,-5.0146 14.575,-9.3898 l 2.8036,-2.5952 -0.11699,6.853 c -0.0642,3.7691 -0.23486,7.4583 -0.37915,8.1982 -0.32444,1.6647 -1.9154,4.8914 -3.2313,6.5533 -1.1422,1.4425 -4.2747,4.7197 -4.4909,4.6983 -0.0806,-0.009 -3.0748,-2.867 -6.6539,-6.3535 z" />
      <path
         id="path20"
         fill="#ffffff"
         d="m 133.06,83.921 -3.33,-0.51801 2.1887,-3.9373 c 1.1537,-2.0752 1.9906,-3.8511 1.8916,-4.0012 -0.23017,-0.34701 -6.8236,-1.277 -7.2762,-1.0285 -0.18648,0.10262 -1.3074,1.7756 -2.521,3.7689 -1.25,2.052 -2.3708,3.8215 -2.4564,3.8765 -0.1308,0.08327 -6.9564,-0.86667 -7.3118,-1.017 -0.0634,-0.02639 1.0855,-1.8431 2.5128,-3.976 1.3839,-2.069 2.3628,-3.782 2.2129,-3.8625 -0.14909,-0.08034 -3.6834,-0.62228 -7.8214,-1.1997 -4.1013,-0.5724 -7.4866,-1.0666 -7.5541,-1.1028 -0.0677,-0.03606 0.22794,-0.28588 0.65614,-0.55428 0.42647,-0.26711 0.81614,-0.64022 0.86752,-0.82934 0.0505,-0.18853 0.37976,-0.45547 0.73011,-0.59343 0.34978,-0.13752 0.83094,-0.53599 1.0694,-0.88376 0.23668,-0.34593 0.76845,-0.79322 1.1817,-0.99512 0.72018,-0.35203 0.83638,-0.35197 3.181,9.77e-4 1.3446,0.20232 2.9455,0.36446 3.5544,0.35944 1.3802,-0.01173 2.6847,-0.35053 2.7493,-0.71294 0.0273,-0.15071 0.21234,-0.30491 0.41265,-0.34303 0.20027,-0.03812 3.1943,-4.0044 6.4242,-8.4954 4.0916,-5.6882 5.2805,-7.5191 5.195,-7.9587 -0.17563,-0.90748 -1.272,-1.2894 -4.7238,-1.658 -2.3865,-0.2548 -2.9341,-0.36399 -2.7788,-0.55267 1.206,-1.4662 1.9743,-2.3596 2.0587,-2.3962 0.0885,-0.03841 11.633,1.2003 12.647,1.3574 0.21844,0.03372 0.92437,-0.79005 1.7816,-2.0731 0.75874,-1.1353 1.4365,-2.1454 1.5209,-2.2665 0.13898,-0.1985 0.29433,-0.20378 1.6372,-0.05483 0.81808,0.09089 2.0749,0.22313 2.7921,0.2945 l 1.3072,0.1296 -1.3257,2.1583 c -0.75346,1.2258 -1.3312,2.2699 -1.2683,2.294 0.0633,0.02346 1.4688,0.19059 3.1285,0.37065 l 3.0321,0.32875 1.2422,-2.2979 1.1912,-2.2028 2.7238,0.28617 c 1.5042,0.15804 2.7928,0.30863 2.8593,0.3342 0.0666,0.02639 -0.37156,1.0373 -0.98568,2.2741 -0.6287,1.266 -1.1499,2.3552 -1.1449,2.3931 0.006,0.03812 0.62307,0.14279 1.3748,0.23339 0.7527,0.0906 1.3777,0.21786 1.3886,0.28265 0.0117,0.0648 0.55564,0.15716 1.2132,0.20495 0.65766,0.04809 1.2064,0.1425 1.2186,0.20964 0.0117,0.06715 0.36574,0.16654 0.78629,0.22049 0.42041,0.05395 0.97211,0.17211 1.2252,0.26213 1.2,0.42726 1.5809,0.53323 1.9096,0.53042 0.19498,-0.0016 0.36982,0.06509 0.388,0.14866 0.0176,0.08357 0.25363,0.15012 0.52244,0.14807 0.26887,-0.0023 0.61803,0.13224 0.77577,0.29951 0.15834,0.16772 0.53505,0.30324 0.83718,0.30063 0.30156,-0.0025 0.46107,0.04017 0.35361,0.09529 -0.10761,0.05512 0.12578,0.28002 0.52015,0.50022 1.5471,0.86453 2.457,1.8085 2.6744,2.7922 0.24806,1.1222 -0.0888,2.7687 -0.57903,2.7731 -0.17944,0.0017 -0.30162,0.10204 -0.2718,0.22313 0.0504,0.20319 -0.62659,0.76642 -1.8324,1.5218 -0.75146,0.47084 -2.8162,1.0479 -4.3002,1.1993 -0.98762,0.10086 -1.3309,0.22841 -1.2863,0.47893 0.0343,0.18853 0.40756,0.39237 0.83031,0.45234 0.42313,0.06011 0.78457,0.18589 0.80252,0.28031 0.0176,0.09441 0.26271,0.16948 0.54443,0.16654 0.63984,-0.0059 4.0876,1.5867 5.0099,2.3201 0.80794,0.64257 1.6204,1.8529 1.8076,2.7047 0.33068,1.5041 0.22372,3.0359 -0.2463,3.3579 -0.28353,0.1941 -0.58568,0.63744 -0.67104,0.98615 -0.14895,0.60697 -0.33179,0.81313 -1.3586,1.5266 -0.24542,0.17035 -0.43439,0.36906 -0.41932,0.44125 0.0147,0.07242 -0.71136,0.58715 -1.6218,1.1483 -0.9181,0.56584 -1.6861,0.97463 -1.6989,0.90417 -0.0117,-0.07037 -0.3888,0.08034 -0.83773,0.3359 -0.44999,0.25656 -0.98885,0.41451 -1.195,0.35053 -0.20583,-0.06392 -0.35548,-0.0012 -0.33256,0.13957 0.0235,0.14103 -0.15305,0.19616 -0.39125,0.12198 -0.2375,-0.07418 -0.78416,-0.02346 -1.2147,0.11435 -1.5281,0.48588 -8.7262,0.87007 -10.389,0.55288 -0.5376,-0.10262 -0.95551,-0.09383 -0.94771,0.02052 0.009,0.11201 -0.89265,0.06421 -1.9988,-0.10585 -1.1034,-0.16977 -2.2289,-0.25802 -2.5043,-0.19674 -0.27533,0.06128 -1.199,0.01173 -2.0504,-0.10644 -0.84998,-0.11963 -1.628,-0.17035 -1.7306,-0.11288 -0.10262,0.05747 -0.94014,1.6202 -1.8834,3.5185 -0.96932,1.9509 -1.8916,3.7897 -2.0249,4.0372 -0.29957,0.55554 -0.47473,0.55191 -4.6479,-0.09734 z m 17.222,-13.079 c 1.0252,-0.22958 1.3426,-0.27562 1.9416,-0.28148 0.54792,-0.0059 2.7137,-1.3253 2.6802,-1.6288 -0.0176,-0.14807 0.14075,-0.27034 0.35057,-0.27239 0.55102,-0.0059 0.99286,-1.4034 0.72853,-2.2773 -0.12314,-0.40812 -0.71607,-1.1198 -1.3135,-1.5808 -1.0584,-0.81712 -3.7537,-1.9717 -4.571,-1.9641 -0.23017,0.0022 -0.42433,-0.07858 -0.43172,-0.17886 -0.009,-0.10028 -0.48464,-0.23252 -1.059,-0.29386 -0.57402,-0.06128 -1.303,-0.21346 -1.6206,-0.33816 -0.47902,-0.18824 -11.244,-1.6348 -11.478,-1.5438 -0.11611,0.04545 -5.1265,8.2626 -5.3112,8.7205 -0.14191,0.35267 0.43076,0.48887 4.3974,1.0431 2.5278,0.35317 5.5771,0.67805 6.7638,0.72024 1.1881,0.04222 2.2355,0.11494 2.3272,0.16185 0.32174,0.1639 5.6124,-0.06568 6.5955,-0.28588 z m 3.3852,-12.849 c 0.0988,-0.06802 0.42158,-0.15012 0.71746,-0.18267 0.64582,-0.07096 2.0671,-0.81735 2.0328,-1.0654 -0.0117,-0.09676 0.12051,-0.1771 0.29623,-0.17886 0.86907,-0.0088 0.94888,-1.9794 0.13106,-2.7473 -0.69546,-0.65345 -2.6981,-1.6099 -3.3496,-1.6042 -0.25451,0.0022 -0.47046,-0.0648 -0.48037,-0.14895 -0.009,-0.08386 -0.44691,-0.19674 -0.97246,-0.25099 -0.52455,-0.05424 -1.1388,-0.17651 -1.3639,-0.27181 -0.5374,-0.22724 -8.7027,-1.1414 -8.9941,-1.0086 -0.22753,0.1035 -4.3822,6.7585 -4.2442,6.8144 0.33382,0.13517 7.5017,0.88203 8.8047,0.91657 0.91343,0.02346 1.7374,0.07858 1.8312,0.1211 0.2504,0.11318 5.3792,-0.24806 5.591,-0.39352 z" />
    </g>
  </g>
</svg>
