<svg width="634" height="145" viewBox="0 0 634 145" fill="none" xmlns="http://www.w3.org/2000/svg">
<path d="M633.894 120.067H621.788C621.769 120.351 621.743 120.578 621.743 120.805C621.756 127.986 621.769 135.173 621.775 142.353C621.775 144.058 621.762 144.058 620.057 144.058C588.405 144.058 556.753 144.058 525.101 144.058C524.741 144.058 524.382 144.058 523.87 144.058C523.87 142.991 523.87 142.018 523.87 141.052C523.902 134.32 523.921 127.582 523.977 120.85C523.977 120.212 523.788 120.041 523.169 120.048C519.721 120.073 516.273 120.06 512.831 120.06H511.808V24.0813H523.908V0.10866H621.737C621.756 0.430737 621.788 0.714922 621.788 0.992793C621.769 8.35636 621.762 15.7262 621.712 23.0898C621.712 23.835 621.895 24.0813 622.666 24.0687C626.088 24.0308 629.505 24.0497 632.928 24.0497H633.888V120.054L633.894 120.067ZM548.689 96.0623C548.689 96.6307 548.689 97.098 548.689 97.5591C548.67 104.765 548.664 111.97 548.613 119.182C548.613 119.883 548.79 120.067 549.485 120.067C569.112 120.048 588.734 120.054 608.362 120.048C608.639 120.048 608.911 120.016 609.176 120.003V48.1234H597.291V72.0581C596.906 72.0581 596.571 72.0581 596.236 72.0581C588.765 72.0581 581.294 72.0581 573.823 72.0455C573.217 72.0455 572.939 72.1402 572.939 72.8539C572.971 80.35 572.971 87.8462 572.977 95.3487C572.977 95.5697 572.939 95.7971 572.914 96.056H548.695L548.689 96.0623ZM572.529 48.0602C573.015 48.0602 573.331 48.0602 573.64 48.0602C581.168 48.0602 588.69 48.0602 596.217 48.0729C596.83 48.0729 597.089 47.9718 597.083 47.2582C597.038 39.8946 597.038 32.5311 597.019 25.1612C597.019 24.8265 597.019 24.4918 597.019 24.1318H536.482C536.482 24.4476 536.482 24.7065 536.482 24.9654C536.482 48.3823 536.494 71.7992 536.482 95.2161C536.482 95.8666 536.62 96.075 537.29 96.0686C540.713 96.0371 544.129 96.056 547.552 96.0497C547.779 96.0497 548.007 96.0181 548.329 95.9929V72.0581C550.451 72.0581 552.478 72.0581 554.505 72.0581C560.239 72.0581 565.98 72.0581 571.714 72.0581C572.163 72.0581 572.586 72.1529 572.579 71.414C572.542 66.627 572.541 61.8464 572.535 57.0594C572.535 54.0913 572.535 51.1294 572.535 48.0602H572.529Z" fill="black"/>
<path d="M232.277 120.041H220.126C220.107 120.414 220.088 120.667 220.088 120.925C220.113 128.396 220.126 135.867 220.177 143.338C220.177 144.064 219.829 144.064 219.305 144.064C211.203 144.058 203.1 144.064 194.991 144.064C171.183 144.064 147.368 144.064 123.56 144.064C123.244 144.064 122.935 144.064 122.53 144.064C122.512 143.774 122.474 143.521 122.474 143.275C122.474 135.937 122.467 128.592 122.461 121.254C122.461 120.073 122.455 120.067 121.23 120.067C117.889 120.067 114.548 120.041 111.207 120.086C110.462 120.092 110.292 119.858 110.292 119.151C110.292 102.895 110.254 86.6337 110.241 70.3783C110.228 56.5921 110.241 42.806 110.241 29.0261C110.241 27.4221 110.241 25.818 110.241 24.1192H122.442V0.0644531C122.815 0.0644531 123.092 0.0644531 123.377 0.0644531C155.294 0.0644531 187.205 0.0644531 219.122 0.0644531C220.145 0.0644531 220.164 0.0897141 220.164 1.037C220.151 7.76904 220.132 14.5074 220.12 21.2394C220.12 21.8962 220.132 22.5593 220.082 23.2098C220.031 23.8603 220.259 24.075 220.922 24.0687C224.37 24.0434 227.818 24.056 231.26 24.056C231.569 24.056 231.879 24.056 232.277 24.056V120.041ZM135.06 24.1002V95.9992H146.749V72.0581C147.078 72.0581 147.387 72.0581 147.697 72.0581C155.193 72.0581 162.695 72.0581 170.192 72.0581C170.728 72.0581 171.12 72.0834 171.114 71.3066C171.076 64.2272 171.076 57.1542 171.069 50.0748C171.069 49.4243 171.069 48.7802 171.069 48.0539C171.448 48.0539 171.732 48.0539 172.017 48.0539C175.515 48.0539 179.014 48.0539 182.513 48.0539C186.567 48.0539 190.615 48.0413 194.669 48.0666C195.276 48.0666 195.465 47.8708 195.408 47.2961C195.351 46.6393 195.314 45.9825 195.32 45.3257C195.332 38.4863 195.358 31.6469 195.37 24.8075C195.37 24.5802 195.339 24.3528 195.32 24.1002H135.054H135.06ZM195.794 72.0645C195.351 72.0645 194.991 72.0645 194.625 72.0645C187.205 72.0645 179.784 72.0645 172.364 72.0581C171.796 72.0581 171.423 72.1023 171.436 72.8475C171.486 75.1337 171.48 77.4261 171.48 79.7122C171.48 85.1244 171.48 90.5428 171.48 96.0623H147.198V119.991H207.508V48.1297H195.787V72.0645H195.794Z" fill="black"/>
<path d="M500.055 0.133921V24.0497H451.447V143.989H426.609C426.609 142.978 426.609 141.987 426.609 140.995C426.615 103.476 426.622 65.9576 426.634 28.4388C426.634 27.3084 426.634 26.1779 426.71 25.0475C426.761 24.3086 426.565 24.056 425.775 24.056C417.989 24.0876 410.196 24.075 402.409 24.075C394.591 24.075 386.779 24.075 378.967 24.075C378.657 24.075 378.348 24.075 377.95 24.075V0.133921H500.062H500.055Z" fill="black"/>
<path d="M317.539 144.001H292.732C292.732 142.89 292.732 141.772 292.732 140.654C292.732 102.82 292.732 64.9851 292.732 27.1505C292.732 26.4937 292.758 25.8369 292.783 25.1801C292.827 24.075 292.833 24.075 291.76 24.075C287.996 24.075 284.232 24.075 280.474 24.075C268.716 24.075 256.95 24.0687 245.191 24.0939C244.414 24.0939 244.168 23.936 244.175 23.1087C244.187 15.9852 244.149 8.86158 244.13 1.73168C244.13 1.20751 244.175 0.689661 244.206 0.12129H366.122V24.0813C365.787 24.0813 365.427 24.0813 365.073 24.0813C349.551 24.0813 334.028 24.0813 318.505 24.0813C317.488 24.0813 317.501 24.0813 317.501 25.1107C317.513 47.6561 317.526 70.2015 317.532 92.7468C317.532 109.059 317.532 125.365 317.532 141.677C317.532 142.435 317.532 143.193 317.532 144.014L317.539 144.001Z" fill="black"/>
<path d="M25.4084 120.06H98.5641V144.008H0.772705V0.10866H25.4084V120.06Z" fill="black"/>
</svg>
