<svg width="177" height="40" viewBox="0 0 177 40" fill="none" xmlns="http://www.w3.org/2000/svg">
<g id="logo">
<g id="Vector">
<path d="M100.303 2.5C100.3 2.92535 100.294 3.3488 100.294 3.77414C100.294 5.54959 100.294 7.32313 100.294 9.09858C100.294 9.18782 100.294 9.27707 100.294 9.391H87.3252V37.3994H87.0632C84.9598 37.3994 82.8584 37.3956 80.755 37.4051C80.5213 37.4051 80.4704 37.3405 80.4704 37.1145C80.4761 27.9904 80.4761 18.8664 80.4761 9.7423V9.3967H67.5168V2.5C78.4463 2.5 89.3738 2.5 100.303 2.5Z" fill="black"/>
<path d="M137.883 2.5C137.879 2.92535 137.873 3.3488 137.873 3.77414C137.873 5.54959 137.873 7.32313 137.873 9.09858C137.873 9.18782 137.873 9.27707 137.873 9.391H124.905V37.3994H124.643C122.539 37.3994 120.438 37.3956 118.334 37.4051C118.101 37.4051 118.05 37.3405 118.05 37.1145C118.055 27.9904 118.055 18.8664 118.055 9.7423V9.3967H105.096V2.5H137.883Z" fill="black"/>
<path d="M0.5 2.54557C0.884482 2.54937 1.26708 2.55507 1.65156 2.55507C3.45335 2.55507 5.25326 2.55507 7.05505 2.55507C7.14551 2.55507 7.2341 2.55507 7.3566 2.55507V30.5577H23.2919V37.4544H0.5V2.54557Z" fill="black"/>
<path d="M35.0337 9.42898C35.0431 9.33214 35.0582 9.2334 35.0582 9.13656C35.0582 7.0364 35.0582 4.93435 35.0582 2.8342V2.54557H55.6242V9.31315H62.4695L62.4695 30.4381H55.6506V37.3367H35.0544V30.4419H28.2393L28.2393 9.42329C28.292 9.41949 28.3429 9.41379 28.3938 9.41379C30.565 9.41379 32.7343 9.41379 34.9055 9.41379C34.9508 9.41379 34.996 9.41949 35.0412 9.42139C35.0506 9.52582 35.0676 9.63026 35.0676 9.7347C35.0676 14.1857 35.0676 18.6385 35.0676 23.0895V23.4161H35.3729C37.4009 23.4161 39.427 23.4161 41.4549 23.4161C41.5529 23.4161 41.649 23.4275 41.747 23.4332V30.4324H55.6242V16.4434H55.3245C53.2155 16.4434 51.1047 16.4434 48.9957 16.4434C48.8977 16.4434 48.8015 16.4339 48.7035 16.4301C48.7035 14.0983 48.7035 11.7665 48.7035 9.42139H48.3926C46.9677 9.42139 45.5447 9.42139 44.1199 9.42139C42.026 9.42139 39.9302 9.41569 37.8363 9.41569C36.9014 9.41569 35.9685 9.42329 35.0337 9.42708L35.0337 9.42898Z" fill="black"/>
<path d="M41.7376 23.4408C41.7414 23.3344 41.7508 23.23 41.7508 23.1236C41.7508 20.995 41.7508 18.8645 41.7508 16.7358C41.7508 16.6466 41.7508 16.5554 41.7508 16.4244H48.7092C48.7092 18.6613 48.7054 20.8982 48.7035 23.135C48.7035 23.2243 48.7035 23.3154 48.7035 23.4408H41.7376Z" fill="black"/>
<path d="M149.489 9.42903C149.498 9.33218 149.513 9.23344 149.513 9.1366C149.513 7.03645 149.513 4.9344 149.513 2.83425V2.54562H170.079V9.31319H176.925V30.4381H170.108V37.3367H149.512V30.4419H142.696V9.42333C142.749 9.41953 142.8 9.41383 142.851 9.41383C145.022 9.41383 147.191 9.41383 149.363 9.41383C149.408 9.41383 149.453 9.41953 149.498 9.42143C149.508 9.52587 149.525 9.63031 149.525 9.73474C149.525 14.1857 149.525 18.6386 149.525 23.0895V23.4161C149.651 23.4161 149.74 23.4161 149.83 23.4161C151.858 23.4161 153.884 23.4161 155.912 23.4161C156.01 23.4161 156.106 23.4275 156.204 23.4332V30.4324H170.081V16.4435H169.782C167.673 16.4435 165.562 16.4435 163.453 16.4435C163.355 16.4435 163.259 16.434 163.161 16.4302V9.42143H162.85C161.425 9.42143 160.002 9.42143 158.577 9.42143C156.483 9.42143 154.387 9.41573 152.293 9.41573C151.359 9.41573 150.426 9.42333 149.491 9.42713L149.489 9.42903Z" fill="black"/>
<path d="M156.195 23.4408C156.198 23.3344 156.208 23.23 156.208 23.1237C156.208 20.995 156.208 18.8645 156.208 16.7359V16.4244H163.166C163.166 18.6613 163.162 20.8982 163.16 23.1351C163.16 23.2243 163.16 23.3154 163.16 23.4408H156.195Z" fill="black"/>
</g>
</g>
</svg>
